<?xml version="1.0" encoding="utf-8"?>
<!-- Uploaded to: SVG Repo, www.svgrepo.com, Generator: SVG Repo Mixer Tools -->
<svg fill="#000000" width="800px" height="800px" viewBox="0 0 32 32" version="1.1" xmlns="http://www.w3.org/2000/svg">
<title>duckduckgo</title>
<path d="M19.185 11.119c-0.263-0.153-0.573-0.256-0.903-0.287l-0.009-0.001c-0.817 0.010-1.038 0.37-1.038 0.37 0.089-0.421 0.457-0.732 0.898-0.732 0.101 0 0.198 0.016 0.289 0.046l-0.006-0.002c0.346 0.065 0.628 0.292 0.767 0.598l0.003 0.007zM12.642 11.184c-0.175-0.073-0.378-0.115-0.59-0.115-0.301 0-0.583 0.084-0.822 0.231l0.007-0.004c-0.692 0.435-0.667 0.88-0.667 0.88-0.043-0.102-0.069-0.221-0.069-0.345 0-0.42 0.286-0.773 0.675-0.875l0.006-0.001c0.168-0.095 0.369-0.151 0.584-0.151 0.346 0 0.658 0.146 0.878 0.38l0.001 0.001zM19.058 13.302c0 0 0 0-0 0-0.116 0-0.21-0.094-0.21-0.21s0.094-0.21 0.21-0.21c0.116 0 0.21 0.094 0.21 0.21 0 0.039-0.010 0.075-0.029 0.106l0.001-0.001c-0.037 0.063-0.105 0.105-0.182 0.105v0zM18.695 12.551c0 0.259 0.21 0.468 0.469 0.468s0.469-0.21 0.469-0.469-0.21-0.469-0.469-0.469c-0.259 0-0.468 0.209-0.469 0.468v0zM12.792 13.854c-0.135-0-0.245-0.11-0.245-0.245s0.11-0.245 0.245-0.245c0.135 0 0.245 0.11 0.245 0.245 0 0.045-0.012 0.087-0.034 0.124l0.001-0.001c-0.043 0.074-0.122 0.122-0.212 0.122-0 0-0 0-0 0v0zM12.37 12.977c-0.523 0-0.947 0.424-0.947 0.947s0.424 0.947 0.947 0.947c0.523 0 0.947-0.424 0.947-0.947 0-0.174-0.047-0.338-0.129-0.478l0.002 0.004c-0.167-0.285-0.472-0.474-0.82-0.474v0zM28.77 16c-0.001 5.973-4.102 10.988-9.642 12.384l-0.088 0.019c-0.337-0.651-0.662-1.271-0.936-1.797 0.804 0.381 1.737 0.652 2.718 0.765l0.041 0.004c0.47-0.18 0.352-3.935-0.175-4.055-0.422-0.094-2.039 1.046-2.675 1.511l0.043 0.195c0.069 0.258 0.109 0.555 0.109 0.86 0 0.247-0.026 0.488-0.075 0.721l0.004-0.023-0.005 0.016c-0.019 0.044-0.048 0.081-0.084 0.11l-0.001 0c-0.39 0.178-0.846 0.282-1.326 0.282-0.195 0-0.386-0.017-0.572-0.050l0.020 0.003c-0.032-0.008-0.058-0.016-0.084-0.026l0.004 0.002c-0.867 0.495-2.512 1.386-2.812 1.213-0.289-0.934-0.456-2.008-0.456-3.121 0-0.348 0.016-0.692 0.048-1.031l-0.003 0.043c0.044-0.575 2.066 0.357 3.052 0.849 0.347-0.226 0.767-0.368 1.22-0.387l0.005-0c-0.608-1.221-0.963-2.66-0.963-4.182 0-0.334 0.017-0.664 0.050-0.989l-0.003 0.041 0.003 0.003c1.427 0.679 3.086 1.137 4.835 1.28l0.051 0.003c1.475-0.030 3.891-0.928 3.628-1.653-0.265-0.725-2.668 0.637-5.176 0.405-1.857-0.172-2.184-1.005-1.774-1.612 0.517-0.764 1.46 0.145 3.013-0.32 1.772-0.526 3.276-1.12 4.717-1.824l-0.178 0.079c1.867-1.041-0.781-1.471-1.406-1.183-0.95 0.348-2.158 0.701-3.392 0.983l-0.218 0.042c0.031-0.271 0.049-0.585 0.049-0.904 0-2.211-0.853-4.223-2.249-5.724l0.005 0.005c-0.542-0.479-1.227-0.809-1.983-0.917l-0.021-0.002c-0.411-0.51-0.922-0.921-1.505-1.209l-0.026-0.012c-0.97-0.518-2.121-0.822-3.344-0.822-0.406 0-0.803 0.033-1.191 0.098l0.042-0.006-0.030 0.005-0.043 0.005 0.005 0.003c-0.185 0.035-0.296 0.1-0.446 0.122 0.536 0.178 0.973 0.355 1.397 0.555l-0.076-0.032c-0.217 0.085-0.515 0.135-0.745 0.23-0.095 0.014-0.181 0.038-0.262 0.073l0.007-0.003c-0.211 0.144-0.354 0.375-0.375 0.641l-0 0.003c0.3-0.030 0.648-0.047 1-0.047 0.973 0 1.916 0.129 2.813 0.371l-0.075-0.017c-0.771 0.093-1.472 0.306-2.115 0.62l0.039-0.017c-0.020 0.010-0.037 0.023-0.060 0.035-0.076 0.028-0.139 0.055-0.199 0.087l0.009-0.004c-1.346 0.891-2.222 2.399-2.222 4.111 0 0.505 0.076 0.993 0.218 1.452l-0.009-0.035c0.404 2.279 2.081 10.107 2.862 13.826-5.009-1.803-8.526-6.513-8.526-12.045 0-7.053 5.718-12.771 12.771-12.771s12.77 5.717 12.771 12.77v0zM16 29.746c-7.592 0-13.746-6.154-13.746-13.746s6.154-13.746 13.746-13.746c7.592 0 13.746 6.154 13.746 13.746v0c-0.001 7.591-6.155 13.745-13.746 13.746h-0zM16 1.004c0 0 0 0-0 0-8.282 0-14.996 6.714-14.996 14.996s6.714 14.996 14.996 14.996c8.282 0 14.996-6.714 14.996-14.996v0c-0-8.282-6.714-14.995-14.996-14.996h-0z"></path>
</svg>